<svg width="1156" height="364" viewBox="0 0 1156 364" fill="none" xmlns="http://www.w3.org/2000/svg">
<rect width="1156" height="364" fill="#3A4153"/>
<g opacity="0.38">
<path d="M337.566 337.087L335.028 335.843C330.55 333.647 330.55 327.263 335.028 325.068L379.289 303.371C380.955 302.554 382.905 302.554 384.571 303.371L396.193 309.068C397.305 309.613 398.606 309.613 399.717 309.068L403.202 307.36C404.77 306.591 404.77 304.355 403.202 303.587C401.203 302.607 401.901 299.599 404.127 299.599H430.358C433.671 299.599 436.358 302.285 436.358 305.599V310.499C436.358 314.939 431.703 317.841 427.717 315.887L425.572 314.835C423.906 314.019 421.956 314.019 420.29 314.835L400.596 324.49C398.93 325.306 396.98 325.306 395.314 324.49L384.571 319.223C382.905 318.407 380.955 318.407 379.289 319.223L342.848 337.087C341.182 337.903 339.232 337.903 337.566 337.087Z" fill="white" fill-opacity="0.03"/>
<path d="M337.258 333.062L329.27 323.737C327.345 321.491 327.345 318.177 329.27 315.93L378.256 258.746C380.65 255.951 384.974 255.951 387.369 258.746L394.002 266.49C396.397 269.285 400.721 269.285 403.116 266.49L404.167 265.262C406.083 263.025 406.083 259.726 404.167 257.49C400.848 253.615 403.601 247.631 408.704 247.631H430.294C433.608 247.631 436.294 250.317 436.294 253.631V281.491C436.294 286.354 430.243 288.592 427.079 284.898C424.988 282.458 421.214 282.458 419.123 284.898L403.116 303.585C400.721 306.38 396.397 306.38 394.002 303.585L387.369 295.841C384.974 293.046 380.65 293.046 378.256 295.841L346.371 333.062C343.976 335.857 339.652 335.857 337.258 333.062Z" fill="#4C5365"/>
</g>
<g opacity="0.38">
<path d="M36.7154 130.535L32.8579 128.644C28.3792 126.449 28.3792 120.065 32.8579 117.869L81.8426 93.8568C83.5086 93.0402 85.4586 93.0402 87.1246 93.8568L99.9103 100.124C101.113 100.714 102.52 100.714 103.722 100.124L107.491 98.2768C109.187 97.4453 109.188 95.0274 107.491 94.1959C105.329 93.1362 106.084 89.8831 108.491 89.8831H137.352C140.666 89.8831 143.352 92.5694 143.352 95.8831V102.458C143.352 106.898 138.698 109.8 134.711 107.845L131.471 106.257C129.805 105.44 127.855 105.44 126.189 106.257L104.457 116.91C102.791 117.727 100.841 117.727 99.1753 116.91L87.1246 111.003C85.4586 110.186 83.5086 110.186 81.8426 111.003L41.9973 130.535C40.3314 131.352 38.3813 131.352 36.7154 130.535Z" fill="white" fill-opacity="0.03"/>
<path d="M36.5379 126.51L27.2535 115.672C25.3291 113.426 25.3291 110.112 27.2535 107.865L80.8811 45.2629C83.2758 42.4674 87.5998 42.4674 89.9945 45.2629L97.9125 54.5061C100.307 57.3016 104.631 57.3016 107.026 54.5061L108.792 52.4446C110.716 50.1981 110.716 46.8842 108.792 44.6377L107.884 43.578C104.55 39.6856 107.315 33.6746 112.441 33.6746H137.283C140.597 33.6746 143.283 36.3609 143.283 39.6746V70.2971C143.283 75.5574 136.738 77.9775 133.316 73.9826C131.055 71.3432 126.972 71.3432 124.711 73.9826L107.026 94.628C104.631 97.4234 100.307 97.4234 97.9125 94.628L89.9945 85.3847C87.5998 82.5893 83.2758 82.5893 80.8811 85.3847L45.6513 126.51C43.2566 129.306 38.9326 129.306 36.5379 126.51Z" fill="#4C5365"/>
</g>
<g opacity="0.38">
<path d="M34.9923 362.705L10.9904 350.94C6.51167 348.744 6.51167 342.36 10.9904 340.165L132.1 280.796C133.766 279.98 135.716 279.98 137.382 280.796L169.397 296.49C171.063 297.307 173.013 297.307 174.679 296.49L184.25 291.799C187.9 290.01 187.9 284.807 184.25 283.017C179.598 280.737 181.221 273.737 186.402 273.737H255.417C258.731 273.737 261.417 276.423 261.417 279.737V311.88C261.417 316.32 256.763 319.222 252.776 317.268L232.809 307.48C231.143 306.663 229.193 306.663 227.527 307.48L174.679 333.386C173.013 334.203 171.063 334.203 169.397 333.386L137.382 317.692C135.716 316.876 133.766 316.876 132.1 317.692L40.2743 362.705C38.6083 363.522 36.6583 363.522 34.9923 362.705Z" fill="white" fill-opacity="0.03"/>
<path d="M36.8171 358.681L7.73821 324.735C5.81379 322.489 5.81379 319.175 7.73821 316.928L132.237 171.594C134.632 168.798 138.956 168.798 141.35 171.594L168.886 203.738C171.281 206.533 175.605 206.533 178 203.738L190.9 188.678C192.825 186.432 192.825 183.118 190.9 180.872L175.323 162.688C171.989 158.795 174.755 152.784 179.88 152.784H255.269C258.583 152.784 261.269 155.471 261.269 158.784V248.332C261.269 253.903 254.337 256.467 250.712 252.236L235.12 234.033C232.725 231.238 228.401 231.238 226.006 234.033L178 290.074C175.605 292.87 171.281 292.87 168.886 290.074L141.35 257.93C138.956 255.134 134.632 255.135 132.237 257.93L45.9305 358.681C43.5358 361.476 39.2118 361.476 36.8171 358.681Z" fill="#4C5365"/>
</g>
<g opacity="0.38">
<path d="M369.964 214.921L345.962 203.155C341.483 200.96 341.483 194.576 345.962 192.38L467.071 133.012C468.737 132.196 470.687 132.196 472.353 133.012L504.369 148.706C506.035 149.523 507.985 149.523 509.651 148.706L519.221 144.015C522.871 142.225 522.871 137.022 519.221 135.233C514.569 132.953 516.193 125.953 521.374 125.953H590.389C593.702 125.953 596.389 128.639 596.389 131.953V164.096C596.389 168.536 591.734 171.438 587.748 169.484L567.781 159.696C566.115 158.879 564.165 158.879 562.499 159.696L509.651 185.602C507.985 186.419 506.035 186.419 504.369 185.602L472.353 169.908C470.687 169.091 468.737 169.091 467.071 169.908L375.246 214.921C373.58 215.738 371.63 215.738 369.964 214.921Z" fill="white" fill-opacity="0.03"/>
<path d="M371.789 210.896L342.71 176.951C340.785 174.704 340.785 171.391 342.71 169.144L467.209 23.8093C469.603 21.0139 473.927 21.0139 476.322 23.8093L503.858 55.9535C506.253 58.749 510.577 58.749 512.971 55.9535L525.872 40.8941C527.796 38.6476 527.796 35.3338 525.872 33.0873L510.295 14.9034C506.96 11.011 509.726 5 514.851 5H590.241C593.554 5 596.241 7.68629 596.241 11V100.548C596.241 106.119 589.309 108.682 585.684 104.451L570.091 86.249C567.697 83.4536 563.373 83.4536 560.978 86.249L512.971 142.29C510.577 145.085 506.253 145.085 503.858 142.29L476.322 110.146C473.927 107.35 469.603 107.35 467.209 110.146L380.902 210.896C378.507 213.692 374.183 213.692 371.789 210.896Z" fill="#4C5365"/>
</g>
<g opacity="0.38">
<path d="M912.838 336.93L910.624 335.773C906.328 333.529 906.328 327.381 910.624 325.137L951.988 303.527C953.729 302.618 955.804 302.618 957.545 303.527L967.974 308.976C969.12 309.575 970.487 309.575 971.633 308.976L974.743 307.351C976.26 306.558 976.26 304.388 974.743 303.595C972.78 302.57 973.509 299.599 975.724 299.599H999.838C1003.15 299.599 1005.84 302.285 1005.84 305.599V310.219C1005.84 314.726 1001.05 317.624 997.059 315.537L996.017 314.992C994.277 314.083 992.201 314.083 990.461 314.992L972.582 324.333C970.841 325.242 968.766 325.242 967.025 324.333L957.545 319.38C955.804 318.471 953.729 318.471 951.988 319.38L918.395 336.93C916.654 337.839 914.579 337.839 912.838 336.93Z" fill="white" fill-opacity="0.03"/>
<path d="M912.448 332.563L905.237 323.593C903.473 321.397 903.473 318.27 905.237 316.075L950.918 259.245C953.319 256.257 957.869 256.257 960.271 259.245L965.693 265.991C968.095 268.979 972.645 268.979 975.046 265.991L975.734 265.135C977.499 262.94 977.499 259.812 975.734 257.617L975.552 257.39C972.396 253.464 975.191 247.631 980.228 247.631H999.778C1003.09 247.631 1005.78 250.317 1005.78 253.631V281.915C1005.78 286.482 1000.03 288.506 997.169 284.946C995.233 282.537 991.564 282.537 989.628 284.946L975.046 303.086C972.645 306.074 968.095 306.074 965.693 303.086L960.271 296.34C957.869 293.352 953.32 293.352 950.918 296.34L921.801 332.563C919.399 335.551 914.85 335.551 912.448 332.563Z" fill="#4C5365"/>
</g>
<g opacity="0.38">
<path d="M630.54 130.378L627.087 128.575C622.792 126.331 622.792 120.183 627.087 117.939L672.884 94.0136C674.625 93.1043 676.7 93.1043 678.441 94.0136L689.947 100.025C691.187 100.673 692.665 100.673 693.905 100.025L697.269 98.2673C698.91 97.4103 698.91 95.0625 697.269 94.2054C695.146 93.096 695.935 89.8831 698.33 89.8831H724.901C728.214 89.8831 730.901 92.5694 730.901 95.8831V102.177C730.901 106.684 726.117 109.582 722.122 107.495L720.053 106.414C718.312 105.505 716.237 105.505 714.496 106.414L694.704 116.753C692.964 117.663 690.889 117.663 689.148 116.753L678.441 111.16C676.7 110.25 674.625 110.25 672.884 111.16L636.096 130.378C634.356 131.288 632.28 131.288 630.54 130.378Z" fill="white" fill-opacity="0.03"/>
<path d="M630.273 126.012L621.845 115.528C620.081 113.333 620.081 110.205 621.845 108.01L671.881 45.7615C674.283 42.7736 678.833 42.7736 681.234 45.7615L687.862 54.0075C690.264 56.9954 694.814 56.9954 697.215 54.0075L698.588 52.3002C700.352 50.1048 700.352 46.9775 698.588 44.7821L697.504 43.4336C694.348 39.5073 697.143 33.6746 702.18 33.6746H724.836C728.15 33.6746 730.836 36.3609 730.836 39.6746V70.7559C730.836 75.6962 724.62 77.8848 721.525 74.0342C719.43 71.4283 715.463 71.4284 713.368 74.0342L697.215 94.1293C694.814 97.1173 690.264 97.1173 687.862 94.1293L681.234 85.8834C678.833 82.8954 674.283 82.8954 671.881 85.8834L639.626 126.012C637.224 129 632.674 129 630.273 126.012Z" fill="#4C5365"/>
</g>
<g opacity="0.38">
<path d="M628.923 362.549L606.568 350.87C602.273 348.626 602.273 342.478 606.568 340.234L720.042 280.953C721.783 280.044 723.858 280.044 725.599 280.953L755.039 296.334C756.78 297.243 758.855 297.243 760.596 296.334L769.315 291.778C772.846 289.934 772.846 284.882 769.315 283.038C764.746 280.651 766.443 273.737 771.599 273.737H835.685C838.999 273.737 841.685 276.423 841.685 279.737V311.6C841.685 316.107 836.901 319.005 832.907 316.918L815.141 307.637C813.401 306.728 811.325 306.728 809.585 307.637L760.596 333.23C758.855 334.139 756.78 334.139 755.039 333.23L725.599 317.849C723.858 316.94 721.783 316.94 720.042 317.849L634.479 362.549C632.739 363.458 630.664 363.458 628.923 362.549Z" fill="white" fill-opacity="0.03"/>
<path d="M630.535 358.182L603.534 324.591C601.769 322.395 601.769 319.268 603.534 317.073L720.07 172.092C722.472 169.104 727.022 169.104 729.423 172.092L754.459 203.239C756.861 206.227 761.411 206.227 763.813 203.239L775.633 188.534C777.397 186.339 777.397 183.211 775.633 181.016L760.784 162.543C757.628 158.617 760.423 152.784 765.461 152.784H835.546C838.86 152.784 841.546 155.471 841.546 158.784V247.518C841.546 253.182 834.419 255.692 830.87 251.277L817.41 234.532C815.008 231.544 810.459 231.544 808.057 234.532L763.813 289.575C761.411 292.563 756.861 292.563 754.46 289.575L729.423 258.429C727.022 255.441 722.472 255.441 720.07 258.429L639.888 358.182C637.486 361.17 632.936 361.17 630.535 358.182Z" fill="#4C5365"/>
</g>
<g opacity="0.38">
<path d="M943.238 214.764L920.883 203.086C916.588 200.842 916.588 194.694 920.883 192.45L1034.36 133.169C1036.1 132.26 1038.17 132.26 1039.91 133.169L1069.35 148.549C1071.09 149.459 1073.17 149.459 1074.91 148.549L1083.63 143.994C1087.16 142.15 1087.16 137.098 1083.63 135.254C1079.06 132.866 1080.76 125.953 1085.91 125.953H1150C1153.31 125.953 1156 128.639 1156 131.953V163.816C1156 168.323 1151.22 171.221 1147.22 169.134L1129.46 159.853C1127.72 158.943 1125.64 158.943 1123.9 159.853L1074.91 185.445C1073.17 186.355 1071.09 186.355 1069.35 185.445L1039.91 170.065C1038.17 169.156 1036.1 169.156 1034.36 170.065L948.794 214.764C947.054 215.674 944.979 215.674 943.238 214.764Z" fill="white" fill-opacity="0.03"/>
<path d="M944.85 210.398L917.849 176.807C916.084 174.611 916.084 171.484 917.849 169.289L1034.39 24.308C1036.79 21.32 1041.34 21.32 1043.74 24.308L1068.77 55.4549C1071.18 58.4428 1075.73 58.4428 1078.13 55.4549L1089.95 40.7497C1091.71 38.5544 1091.71 35.427 1089.95 33.2317L1075.1 14.759C1071.94 10.8327 1074.74 5 1079.78 5H1149.86C1153.17 5 1155.86 7.68629 1155.86 11V99.7333C1155.86 105.398 1148.73 107.908 1145.18 103.492L1131.73 86.7477C1129.32 83.7597 1124.77 83.7597 1122.37 86.7477L1078.13 141.791C1075.73 144.779 1071.18 144.779 1068.77 141.791L1043.74 110.644C1041.34 107.656 1036.79 107.656 1034.39 110.644L954.203 210.398C951.801 213.386 947.251 213.386 944.85 210.398Z" fill="#4C5365"/>
</g>
</svg>
